PathFileType	4	(X/Y/Z)	/home/abdul/Desktop/myosuite/custom_workspace/IK/output/S16_12_2.trc
DataRate	CameraRate	NumFrames	NumMarkers	Units	OrigDataRate	OrigDataStartFrame	OrigNumFrames
200.0	200.0	61	3	mm	200.0	961	1280
Frame#	Time	V_Shoulder			V_Elbow			V_Wrist		
		X1	Y1	Z1	X2	Y2	Z2	X3	Y3	Z3

961	4.8	-116.09048512229192	600.7232906966577	300.8945105349406	-278.5640147645287	483.9244106306347	44.42765731689698	-239.77021748567324	307.59656887150686	72.571003150405
962	4.805	-116.3131956321658	601.1103560444021	300.7483796774846	-278.62057475386973	484.6902706305492	44.079382690033185	-240.6557993293597	308.8245268336225	71.53548306986718
963	4.81	-116.54094864544682	601.4949640199384	300.59874846505835	-278.6637020607121	485.4384704893559	43.72450161202481	-241.49793088112506	310.02511363030567	70.49019474787934
964	4.815	-116.77370738970023	601.8769390362482	300.44574562877165	-278.69368438358146	486.1687609275344	43.36324436577158	-242.29677973572552	311.1979203008982	69.43649326484417
965	4.82	-117.01143014489804	602.2561099348372	300.28950513445017	-278.71082895143206	486.88092124824595	42.99585321025671	-243.05257986003065	312.342584287323	68.37572542000885
966	4.825	-117.25407026306408	602.6323102824073	300.1301659290771	-278.7154616588977	487.5747593077067	42.6225819970483	-243.76563025152956	313.4587893347176	67.30922705804156
967	4.83	-117.50157619465483	603.0053786581908	299.96787167519153	-278.70792616955237	488.25011142017263	42.243695757787805	-244.43629346626767	314.54626528579337	66.23832048861408
968	4.835	-117.75389152167655	603.3751589311746	299.8027704738246	-278.68858298972884	488.9068421987331	41.859470263545646	-245.06499402097518	315.60478777127094	65.16431200379319
969	4.84	-118.01095499753062	603.7415005264745	299.6350145765908	-278.65780851545696	489.54484433329503	41.47019155698689	-245.65221667439738	316.6341777990169	64.08848949748003
970	4.845	-118.27270059357129	604.1042586801339	299.4647600875783	-278.6159940550907	490.16403830730883	41.0761554583493	-246.19850459307668	317.63430124476565	63.012120190578706
971	4.85	-118.53905755235131	604.4632946816581	299.2921666557144	-278.5635448301968	490.76437205496046	40.677667046293045	-246.7044574070611	318.6050682475525	61.93644846502643
972	4.855	-118.80995044752244	604.8184761036218	299.11739715830817	-278.50087895727063	491.3458205607086	40.27504011473489	-247.17072916122981	319.5464325132202	60.862693809281204
973	4.86	-119.0852992503488	605.1696770177181	298.94061737650105	-278.4284264128355	491.9083854032021	39.868596606830536	-247.5980261681276	320.4583905295731	59.79204887734114
974	4.865	-119.36501940278299	605.5167781966547	298.7619956633783	-278.34662798446516	492.45209424575194	39.45866602731654	-247.98710476839315	321.3409806969552	58.72567766286625
975	4.87	-119.64902189704479	605.859667301338	298.58170260551776	-278.255934210247	492.97700027567015	39.04558483446918	-248.33876900504077	322.1942823782173	57.66471378948984
976	4.875	-119.93721336163385	606.1982390528223	298.399910678774	-278.1568043091777	493.48318159490805	38.629695812980124	-248.65386821802286	323.0184148722003	56.610258917945714
977	4.88	-120.22949615369839	606.5323953885436	298.2167938991144	-278.0497051049547	493.97074056454295	38.21134742908952	-248.93329456565067	323.8135363150226	55.56338127020028
978	4.885	-120.52576845767165	606.8620456024	298.0325274693394	-277.93510994558994	494.43980310576706	37.79089316935566	-249.17798047958894	324.57984251358766	54.52511427036804
979	4.89	-120.82592439007927	607.187106468281	297.847287422539	-277.81349762123847	494.8905179601244	37.368690864476704	-249.38889606026612	325.317565715853	53.49645530180443
980	4.895	-121.12985411041007	607.5075023466924	297.66125026314165	-277.6853512825919	495.32305591182495	36.9451019996146	-249.5670464196496	326.02697332249875	52.478364579414205
981	4.9	-121.43744393793344	607.8231652741769	297.4745926064318	-277.5511573621452	495.73760897503513	36.52049101270399	-249.71346897843236	326.70836654472214	51.471764135886446
982	4.905	-121.74857647433595	608.1340350352642	297.2874908174159	-277.4114045006014	496.13438954910646	36.09522458226018	-249.82923072475518	327.36207901294745	50.477536920268804
983	4.91	-122.06313073203978	608.44005921675	297.1001206499219	-277.2665824806312	496.51362954475053	35.669670906229626	-249.91542544165452	327.98847534129516	49.496526007024656
984	4.915	-122.38098226805555	608.7411932441349	296.9126568868258	-277.1171811701556	496.87557948420397	35.24419897345476	-249.97317091047194	328.5879496526826	48.52953391347688
985	4.92	-122.70200332321122	609.0374004001178	296.7252729822962	-276.96368947727274	497.22050757845693	34.81917782935133	-250.00360609749163	329.1609240694469	47.57732202333033
986	4.925	-123.02606296658952	609.3286518250799	296.5381407069482	-276.8065943188969	497.5486987846251	34.39497583742199	-250.00788833108703	329.7078471743779	46.64061011378162
987	4.93	-123.3530272449941	609.6149264995522	296.3514297967966	-276.6463796051283	497.8604538465552	33.97195993825312	-249.9871904766507	330.22919244703354	45.720075983568066
988	4.935	-123.68275933725597	609.8962112087064	296.1653076068912	-276.48352524131997	498.1560883217358	33.55049490766499	-249.9426981165601	330.72545668017125	44.816355179176526
989	4.94	-124.01511971318054	610.1725004889616	295.9799387705079	-276.3185061497535	498.43593159757165	33.13094261570536	-249.8756067423888	331.19715838108647	43.930040816326596
990	4.945	-124.34996629692506	610.443796556853	295.7954848647627	-276.1517913127836	498.7003259000422	32.71366128819621	-249.78711896651077	331.64483616257746	43.06168349375887
991	4.95	-124.6871546345866	610.7101092203529	295.6121040834991	-275.98384283925833	498.9496252977251	32.29900477256036	-249.6784417601648	332.06904712817914	42.21179129629699
992	4.955	-125.02653806576991	610.9714557728921	295.4299509182861	-275.8151150559653	499.1841947041097	31.88732180967007	-249.55078372494464	332.4703652562152	41.38082988410908
993	4.96	-125.36796789889495	611.2278608703763	295.2491758483466	-275.6460536258011	499.4044088810624	31.478955313472866	-249.40535240455924	332.84937978710764	40.569222665069525
994	4.965	-125.71129358999373	611.4793563915388	295.06992504021537	-275.47709469430544	499.6106514462323	31.074241660160606	-249.2433516435641	333.2066936182647	39.77735104711225
995	4.97	-126.05636292473685	611.7259812820245	294.8923400579037	-275.30866406614416	499.80331388710323	30.673509988655486	-249.06597899960488	333.5429217107342	39.00555476747168
996	4.975	-126.40302220341967	611.9677813826412	294.71655758432394	-275.1411764130685	499.9827945843049	30.2770815141919	-248.87442321552925	333.85868951166515	38.25413229572335
997	4.98	-126.75111642863088	612.2048092422647	294.5427091546982	-274.97503451482027	500.1494978466966	29.885268856774715	-248.66986175752083	334.1546313964662	37.523341307562234
998	4.985	-127.10048949531506	612.4371239159246	294.37092090265037	-274.8106285343928	500.30383296063064	29.498375386292537	-248.4534584251864	334.43138913438554	36.81339922629117
999	4.99	-127.45098438293455	612.6647907486458	294.20131331964507	-274.6483353289959	500.44621325568454	29.116694586058507	-248.22636103928363	334.6896103810624	36.12448382903119
1000	4.995	-127.80244334942658	612.8878811456531	294.0340010284063	-274.48851779801123	500.5770551890323	28.740509436540858	-247.98969921251472	334.9299472014195	35.4567339147099
1001	5.0	-128.15470812664432	613.106472329597	293.8690925709147	-274.33152426915996	500.6967774504984	28.37009182103054	-247.7445822085306	335.1530546260785	34.810250030930845
1002	5.005	-128.50762011696426	613.3206470854878	293.7066902115396	-274.17768792403757	500.8058000902047	28.005701954972995	-247.49209689399143	335.3595892442837	34.18509525687392
1003	5.01	-128.86102059073394	613.5304934940609	293.5468897558312	-274.0273262641014	500.90454367058487	27.64758784066551	-247.2333057882127	335.55020783612235	33.5812960394244
1004	5.015	-129.2147508842303	613.7361046543334	293.38978038545014	-273.8807406181254	500.9934284444039	27.29598474899042	-246.96924521459448	335.7255660466235	32.99884307977271
1005	5.02	-129.56865259779138	613.9375783961385	293.2354445096716	-273.7382156920613	501.0728735602713	26.95111472981673	-246.70092355768406	335.8863171041122	32.437692267770025
1006	5.025	-129.92256779378093	614.1350169834565	293.0839576338611	-273.60001916216925	501.1432962970018	26.61318615265889	-246.42931962935978	336.0331105849855	31.897765661362417
1007	5.03	-130.2763391940401	614.3285268093805	292.935388245266	-273.46640131219715	501.20511132802096	26.282393279130915	-246.15538114725274	336.1665912268662	31.37895250846033
1008	5.035	-130.62981037647873	614.518218083586	292.7897977164277	-273.3375947153087	501.2587300168759	25.958915868676215	-245.88002332813466	336.2873977918787	30.881110308628163
1009	5.04	-130.98282597045394	614.7042045131864	292.64724022646675	-273.2138139613661	501.30455974476104	25.64291881898903	-245.60412759860844	336.39616198158024	30.40406591200138
1010	5.045	-131.33523185058405	614.8866029778782	292.50776270044565	-273.09525543008726	501.34300327082383	25.334551842470972	-245.32854042503374	336.4935074048725	29.947616652855118
1011	5.05	-131.68687532864314	615.0655332002945	292.3714047669658	-272.9820971104991	501.3744581258744	25.033949179986813	-245.054072264211	336.5800486000093	29.511531515258625
1012	5.055	-132.03760534318258	615.2411174124935	292.23819873410207	-272.8744984670099	501.39931603998065	24.74122935309672	-244.78149663593453	336.6563901116126	29.095552328254392
1013	5.06	-132.3872726465253	615.4134800195219	292.1081695837291	-272.7726003523221	501.417962404293	24.456494955847404	-244.5115493181076	336.7231256234072	28.69939498799951
1014	5.065	-132.7357299887816	615.5827472609959	291.98133498424096	-272.676524967299	501.43077576730957	24.179832487102836	-244.24492766469535	336.78083714718855	28.322750704300404
1015	5.07	-133.08283229853564	615.7490468716464	291.85770532161433	-272.58637586779037	501.43812736565997	23.911312224285965	-243.98229004637545	336.83009426834633	27.965287268960385
1016	5.075	-133.42843685985738	615.9125077417751	291.7372837487134	-272.50223801830714	501.44038068936675	23.650988139286433	-243.72425541333166	336.87145344808005	27.626650343344355
1017	5.08	-133.7724034852972	616.0732595785659	291.6200662526823	-272.42417789231877	501.4378910814162	23.39889785716609	-243.47140297922675	336.9054573822624	27.306464762545822
1018	5.085	-134.11459468452568	616.2314325691841	291.5060417402196	-272.35224361882854	501.43100537136365	23.15506265816451	-243.22427202498932	336.93263441673537	27.004335853520313
1019	5.09	-134.45487582828886	616.3871570465986	291.39519214047914	-272.28646517475875	501.42006154258354	22.919487523370663	-242.9833618206535	336.95349801865433	26.719850764526306
1020	5.095	-134.79311530735404	616.5405631590369	291.28749252528723	-272.2268546225532	501.40538843267973	22.692161224285655	-242.74913166310876	336.96854630334116	26.45257980319134
1021	5.1	-135.12918468613077	616.6917805439768	291.18291124632043	-272.17340639227916	501.3873054664712	22.473056456354662	-242.52200102724453	336.9782616159531	26.202077780498165
